<?xml version="1.0" encoding="utf-8"?>
<!-- Generator: Adobe Illustrator 19.2.1, SVG Export Plug-In . SVG Version: 6.00 Build 0)  -->
<!DOCTYPE svg PUBLIC "-//W3C//DTD SVG 1.1//EN" "http://www.w3.org/Graphics/SVG/1.1/DTD/svg11.dtd">
<svg version="1.1" id="Layer_1" xmlns="http://www.w3.org/2000/svg" xmlns:xlink="http://www.w3.org/1999/xlink" x="0px" y="0px"
	 viewBox="0 0 24 24" style="enable-background:new 0 0 24 24;" xml:space="preserve">
<style type="text/css">
	.st0{fill:#FFFFFF;}
</style>
<g id="XMLID_1_">
	<g>
		<path class="st0" d="M21.6,3.2l2.1,2.1c0.3,0.3,0.3,0.8,0,1.1L9.4,20.8c-0.3,0.3-0.8,0.3-1.1,0l-2.1-2.1c-0.3-0.3-0.8-0.8-1.1-1.1
			l-4.9-5.2C0.1,12.2,0,12,0,11.8c0-0.2,0.1-0.4,0.2-0.5l2.2-1.9c0.1-0.2,0.3-0.2,0.5-0.2c0.2,0,0.4,0.1,0.5,0.2l4.9,5
			c0.3,0.3,0.8,0.3,1.1,0L20.6,3.2C20.9,2.9,21.4,2.9,21.6,3.2z"/>
	</g>
</g>
</svg>
