<svg xmlns="http://www.w3.org/2000/svg" viewBox="0 0 470 330"><defs><style>.cls-1{isolation:isolate;}.cls-2{fill:#b5cfdd;}.cls-3{opacity:0.3;mix-blend-mode:multiply;}.cls-4{fill:#a9a2a3;}.cls-5{fill:#2364ae;}.cls-6{fill:#fff;}.cls-7,.cls-8{fill:none;stroke-width:30px;}.cls-7{stroke:#a9a2a3;}.cls-7,.cls-8,.cls-9{stroke-miterlimit:10;}.cls-8{stroke:#2364ae;}.cls-9{fill:#fdfefe;stroke:#fdfefe;}</style></defs><title>schurz_illustrations</title><g class="cls-1"><g id="Layer_3" data-name="Layer 3"><circle class="cls-2" cx="235" cy="165" r="145"/><g class="cls-3"><circle class="cls-4" cx="239" cy="168.5" r="37.5"/></g><circle class="cls-5" cx="235" cy="165.5" r="37.5"/></g><g id="Layer_2" data-name="Layer 2"><polygon class="cls-6" points="235 141.66 241.86 155.56 257.19 157.79 246.1 168.6 248.72 183.88 235 176.67 221.28 183.88 223.9 168.6 212.81 157.79 228.14 155.56 235 141.66"/></g><g id="Layer_5" data-name="Layer 5"><g class="cls-3"><circle class="cls-7" cx="240" cy="168" r="81.78"/></g><circle class="cls-8" cx="236" cy="165" r="81.78"/></g><g id="Layer_4" data-name="Layer 4"><polygon class="cls-9" points="293.38 130.92 311.75 130.5 319.34 115.79 320.72 118.15 313.42 133.17 294.8 133.53 293.38 130.92"/><polygon class="cls-9" points="236.42 231.78 227.59 247.9 236.53 261.83 233.79 261.84 224.44 248.01 233.45 231.71 236.42 231.78"/><polygon class="cls-9" points="172.38 144.76 160.32 130.89 144.16 134.44 145.09 131.87 161.31 127.9 173.47 142 172.38 144.76"/></g></g></svg>