<svg xmlns="http://www.w3.org/2000/svg" viewBox="0 0 470 330"><defs><style>.cls-1{isolation:isolate;}.cls-2{fill:#b5cfdd;}.cls-3{opacity:0.3;mix-blend-mode:multiply;}.cls-4{fill:#a9a2a3;}.cls-5{fill:#fff;}.cls-6{fill:#2364ae;}</style></defs><title>schurz_illustrations</title><g class="cls-1"><g id="Layer_3" data-name="Layer 3"><circle class="cls-2" cx="235" cy="165" r="145"/></g><g id="Layer_5" data-name="Layer 5"><g class="cls-3"><rect class="cls-4" x="217.95" y="95.83" width="123.1" height="71.86" rx="12" ry="12"/><polyline class="cls-4" points="298.67 167.7 318.33 180.67 318.33 164.67"/><rect class="cls-4" x="217.95" y="95.83" width="123.1" height="71.86" rx="12" ry="12"/><polyline class="cls-4" points="298.67 167.7 318.33 180.67 318.33 164.67"/></g><rect class="cls-5" x="213.95" y="92.83" width="123.1" height="71.86" rx="12" ry="12"/><polyline class="cls-5" points="294.67 164.7 314.33 177.67 314.33 161.67"/><rect class="cls-5" x="213.95" y="92.83" width="123.1" height="71.86" rx="12" ry="12"/><polyline class="cls-5" points="294.67 164.7 314.33 177.67 314.33 161.67"/><circle class="cls-6" cx="254.62" cy="128.84" r="5.91"/><circle class="cls-6" cx="274.18" cy="128.53" r="5.91"/><circle class="cls-6" cx="293.38" cy="128.53" r="5.91"/><g class="cls-3"><polyline class="cls-4" points="190.7 230.53 167.24 246 167.24 226.91"/><rect class="cls-4" x="140.14" y="144.8" width="146.85" height="85.73" rx="12" ry="12"/><polyline class="cls-4" points="190.7 230.53 167.24 246 167.24 226.91"/><rect class="cls-4" x="140.14" y="144.8" width="146.85" height="85.73" rx="12" ry="12"/></g><polyline class="cls-5" points="186.7 227.53 163.24 243 163.24 223.91"/><rect class="cls-5" x="136.14" y="141.8" width="146.85" height="85.73" rx="12" ry="12"/><polyline class="cls-6" points="186.7 227.53 163.24 243 163.24 223.91"/><rect class="cls-6" x="136.14" y="141.8" width="146.85" height="85.73" rx="12" ry="12"/><circle class="cls-5" cx="187.05" cy="183.59" r="5.91"/><circle class="cls-5" cx="206.61" cy="183.28" r="5.91"/><circle class="cls-5" cx="225.81" cy="183.28" r="5.91"/></g></g></svg>