<svg xmlns="http://www.w3.org/2000/svg" viewBox="0 0 470 330"><defs><style>.cls-1{isolation:isolate;}.cls-2{fill:#b5cfdd;}.cls-3{opacity:0.3;mix-blend-mode:multiply;}.cls-4{fill:#a9a2a3;}.cls-5{fill:#fff;}.cls-6{fill:none;stroke:#939598;stroke-miterlimit:10;stroke-width:3px;}.cls-7{fill:#777d7f;}.cls-8{fill:#2464ad;}.cls-9{fill:#2364ae;}.cls-10{fill:#939598;}</style></defs><title>schurz_illustrations</title><g class="cls-1"><g id="Layer_3" data-name="Layer 3"><circle class="cls-2" cx="235" cy="165" r="145"/><g class="cls-3"><path class="cls-4" d="M296.33,241.11a13.32,13.32,0,0,1-13.57,13.06H166.67a13.32,13.32,0,0,1-13.57-13.06V88.73a13.32,13.32,0,0,1,13.57-13.06H282.76a13.32,13.32,0,0,1,13.57,13.06Z"/></g><path class="cls-5" d="M292.33,238.11a13.32,13.32,0,0,1-13.57,13.06H162.67a13.32,13.32,0,0,1-13.57-13.06V85.73a13.32,13.32,0,0,1,13.57-13.06H278.76a13.32,13.32,0,0,1,13.57,13.06Z"/></g><g id="Layer_1" data-name="Layer 1"><line class="cls-6" x1="166.64" y1="104.96" x2="276.57" y2="104.96"/><line class="cls-6" x1="166.64" y1="120.72" x2="276.57" y2="120.72"/><line class="cls-6" x1="166.04" y1="135.7" x2="275.98" y2="135.7"/><line class="cls-6" x1="166.04" y1="151.46" x2="275.98" y2="151.46"/><line class="cls-6" x1="166.04" y1="167.02" x2="275.98" y2="167.02"/><line class="cls-6" x1="165.95" y1="181.7" x2="275.88" y2="181.7"/><line class="cls-6" x1="166.04" y1="196.58" x2="275.98" y2="196.58"/><line class="cls-6" x1="166.04" y1="212.34" x2="275.98" y2="212.34"/><line class="cls-6" x1="166.04" y1="227.72" x2="275.98" y2="227.72"/><circle class="cls-7" cx="152.44" cy="97.07" r="2.69"/><rect class="cls-8" x="145.31" y="94.84" width="7.13" height="4.5"/><circle class="cls-9" cx="145.23" cy="97.08" r="2.24"/><ellipse class="cls-9" cx="152.23" cy="97.09" rx="2.24" ry="2.25"/><g class="cls-3"><polygon class="cls-4" points="322.85 156.85 319.5 157.16 320.87 153.83 322.85 156.85"/><polygon class="cls-4" points="317.71 166.69 320.55 158.6 321.99 158.47 326.51 165.88 317.71 166.69"/><path class="cls-4" d="M315.41,168.58l4-11.41,3.37-.31,6.29,10.32Zm6.07-8-1.54,4.38,4-.37Z"/><rect class="cls-4" x="319.23" y="167.68" width="13.75" height="75.5" transform="translate(-19.27 34.37) rotate(-5.86)"/></g><polygon class="cls-10" points="320.85 156.85 317.5 157.16 318.87 153.83 320.85 156.85"/><polygon class="cls-9" points="315.71 166.69 318.55 158.6 319.99 158.47 324.51 165.88 315.71 166.69"/><path class="cls-9" d="M313.41,168.58l4-11.41,3.37-.31,6.29,10.32Zm6.07-8-1.54,4.38,4-.37Z"/><rect class="cls-10" x="317.23" y="167.68" width="13.75" height="75.5" transform="translate(-19.28 34.17) rotate(-5.86)"/><circle class="cls-7" cx="152.44" cy="106.07" r="2.69"/><rect class="cls-8" x="145.31" y="103.84" width="7.13" height="4.5"/><circle class="cls-9" cx="145.23" cy="106.08" r="2.24"/><ellipse class="cls-9" cx="152.23" cy="106.09" rx="2.24" ry="2.25"/><circle class="cls-7" cx="152.25" cy="115.07" r="2.69"/><rect class="cls-8" x="145.12" y="112.84" width="7.13" height="4.5"/><circle class="cls-9" cx="145.04" cy="115.08" r="2.24"/><ellipse class="cls-9" cx="152.04" cy="115.09" rx="2.24" ry="2.25"/><circle class="cls-7" cx="152.25" cy="124.07" r="2.69"/><rect class="cls-8" x="145.12" y="121.84" width="7.13" height="4.5"/><circle class="cls-9" cx="145.04" cy="124.08" r="2.24"/><ellipse class="cls-9" cx="152.04" cy="124.09" rx="2.24" ry="2.25"/><circle class="cls-7" cx="152.35" cy="133.07" r="2.69"/><rect class="cls-8" x="145.22" y="130.84" width="7.13" height="4.5"/><circle class="cls-9" cx="145.14" cy="133.08" r="2.24"/><ellipse class="cls-9" cx="152.14" cy="133.09" rx="2.24" ry="2.25"/><circle class="cls-7" cx="152.35" cy="142.07" r="2.69"/><rect class="cls-8" x="145.22" y="139.84" width="7.13" height="4.5"/><circle class="cls-9" cx="145.14" cy="142.08" r="2.24"/><ellipse class="cls-9" cx="152.14" cy="142.09" rx="2.24" ry="2.25"/><circle class="cls-7" cx="152.16" cy="151.07" r="2.69"/><rect class="cls-8" x="145.03" y="148.84" width="7.13" height="4.5"/><circle class="cls-9" cx="144.95" cy="151.08" r="2.24"/><ellipse class="cls-9" cx="151.95" cy="151.09" rx="2.24" ry="2.25"/><circle class="cls-7" cx="152.16" cy="160.07" r="2.69"/><rect class="cls-8" x="145.03" y="157.84" width="7.13" height="4.5"/><circle class="cls-9" cx="144.95" cy="160.08" r="2.24"/><ellipse class="cls-9" cx="151.95" cy="160.09" rx="2.24" ry="2.25"/><circle class="cls-7" cx="152.57" cy="169.07" r="2.69"/><rect class="cls-8" x="145.44" y="166.84" width="7.13" height="4.5"/><circle class="cls-9" cx="145.37" cy="169.08" r="2.24"/><ellipse class="cls-9" cx="152.37" cy="169.09" rx="2.24" ry="2.25"/><circle class="cls-7" cx="152.57" cy="178.07" r="2.69"/><rect class="cls-8" x="145.44" y="175.84" width="7.13" height="4.5"/><circle class="cls-9" cx="145.37" cy="178.08" r="2.24"/><ellipse class="cls-9" cx="152.37" cy="178.09" rx="2.24" ry="2.25"/><circle class="cls-7" cx="152.39" cy="187.07" r="2.69"/><rect class="cls-8" x="145.26" y="184.84" width="7.13" height="4.5"/><circle class="cls-9" cx="145.18" cy="187.08" r="2.24"/><ellipse class="cls-9" cx="152.18" cy="187.09" rx="2.24" ry="2.25"/><circle class="cls-7" cx="152.39" cy="196.07" r="2.69"/><rect class="cls-8" x="145.26" y="193.84" width="7.13" height="4.5"/><circle class="cls-9" cx="145.18" cy="196.08" r="2.24"/><ellipse class="cls-9" cx="152.18" cy="196.09" rx="2.24" ry="2.25"/><circle class="cls-7" cx="152.06" cy="205.07" r="2.69"/><rect class="cls-8" x="144.93" y="202.84" width="7.13" height="4.5"/><circle class="cls-9" cx="144.86" cy="205.08" r="2.24"/><ellipse class="cls-9" cx="151.86" cy="205.09" rx="2.24" ry="2.25"/><circle class="cls-7" cx="152.06" cy="214.07" r="2.69"/><rect class="cls-8" x="144.93" y="211.84" width="7.13" height="4.5"/><circle class="cls-9" cx="144.86" cy="214.08" r="2.24"/><ellipse class="cls-9" cx="151.86" cy="214.09" rx="2.24" ry="2.25"/><circle class="cls-7" cx="151.88" cy="223.07" r="2.69"/><rect class="cls-8" x="144.75" y="220.84" width="7.13" height="4.5"/><circle class="cls-9" cx="144.67" cy="223.08" r="2.24"/><ellipse class="cls-9" cx="151.67" cy="223.09" rx="2.24" ry="2.25"/><circle class="cls-7" cx="151.88" cy="232.07" r="2.69"/><rect class="cls-8" x="144.75" y="229.84" width="7.13" height="4.5"/><circle class="cls-9" cx="144.67" cy="232.08" r="2.24"/><ellipse class="cls-9" cx="151.67" cy="232.09" rx="2.24" ry="2.25"/></g></g></svg>