<svg xmlns="http://www.w3.org/2000/svg" viewBox="0 0 470 330"><defs><style>.cls-1{isolation:isolate;}.cls-2{fill:#b5cfdd;}.cls-3{opacity:0.3;mix-blend-mode:multiply;}.cls-4{fill:#a9a2a3;}.cls-5{fill:#2364ae;}.cls-10,.cls-6,.cls-8,.cls-9{fill:none;stroke:#939598;stroke-miterlimit:10;stroke-width:3px;}.cls-7{fill:#fff;}.cls-8{stroke-dasharray:5.38 2.02;}.cls-9{stroke-dasharray:8.15 3.06;}.cls-10{stroke-dasharray:9.12 3.42;}</style></defs><title>schurz_illustrations</title><g class="cls-1"><g id="Layer_3" data-name="Layer 3"><circle class="cls-2" cx="235" cy="165" r="145"/></g><g id="Layer_5" data-name="Layer 5"><g class="cls-3"><rect class="cls-4" x="196.04" y="71.7" width="90.96" height="35.97" rx="12" ry="12"/></g><rect class="cls-5" x="192.04" y="68.7" width="90.96" height="35.97" rx="12" ry="12"/><line class="cls-6" x1="234" y1="104.67" x2="234" y2="120.37"/><polyline class="cls-6" points="271.5 179.41 271.5 120.36 198.5 120.36 198.5 179.41"/><polyline class="cls-6" points="322.5 195.67 322.5 179.81 253.5 179.81 253.5 195.67"/><g class="cls-3"><circle class="cls-4" cx="257.5" cy="216.27" r="21.63"/></g><circle class="cls-5" cx="253.5" cy="213.27" r="21.63"/><g class="cls-3"><circle class="cls-4" cx="326.5" cy="216.27" r="21.63"/></g><circle class="cls-5" cx="322.5" cy="213.27" r="21.63"/><g class="cls-3"><rect class="cls-4" x="248.63" y="135.81" width="56.37" height="30.68" rx="12" ry="12"/></g><rect class="cls-7" x="244.63" y="132.81" width="56.37" height="30.68" rx="12" ry="12"/><g class="cls-3"><rect class="cls-4" x="174.41" y="135.81" width="56.37" height="30.68" rx="12" ry="12"/></g><rect class="cls-7" x="170.41" y="132.81" width="56.37" height="30.68" rx="12" ry="12"/><g class="cls-3"><rect class="cls-4" x="164.42" y="181.63" width="52.39" height="77.35" rx="12" ry="12"/></g><rect class="cls-7" x="160.42" y="178.63" width="52.39" height="77.35" rx="12" ry="12"/><line class="cls-6" x1="160.42" y1="221" x2="156.42" y2="221"/><line class="cls-8" x1="154.4" y1="221" x2="148.01" y2="221"/><polyline class="cls-6" points="147 221 143 221 143 217"/><line class="cls-9" x1="143" y1="213.94" x2="143" y2="92.21"/><polyline class="cls-6" points="143 90.68 143 86.68 147 86.68"/><line class="cls-10" x1="150.42" y1="86.68" x2="186.33" y2="86.68"/><line class="cls-6" x1="188.04" y1="86.68" x2="192.04" y2="86.68"/></g></g></svg>