<svg xmlns="http://www.w3.org/2000/svg" viewBox="0 0 470 330"><defs><style>.cls-1{isolation:isolate;}.cls-2{fill:#b5cfdd;}.cls-3{opacity:0.3;mix-blend-mode:multiply;}.cls-4{fill:#a9a2a3;}.cls-5,.cls-8{fill:none;stroke-miterlimit:10;stroke-width:3px;}.cls-5{stroke:#a9a2a3;}.cls-6{fill:#fff;}.cls-7{fill:#2364ae;}.cls-8{stroke:#939598;}</style></defs><title>schurz_illustrations</title><g class="cls-1"><g id="Layer_3" data-name="Layer 3"><circle class="cls-2" cx="235" cy="165" r="145"/></g><g id="Layer_4" data-name="Layer 4"><g class="cls-3"><rect class="cls-4" x="181.45" y="77.22" width="111.04" height="184.19" rx="12" ry="12"/><circle class="cls-4" cx="236.79" cy="243.85" r="7.77"/><rect class="cls-4" x="229.03" y="86.43" width="16" height="1.1" rx="0.55" ry="0.55"/><circle class="cls-4" cx="236.72" cy="82.5" r="1.1"/><rect class="cls-4" x="190" y="92.64" width="93.76" height="136.07"/><rect class="cls-4" x="196.43" y="100.7" width="80.91" height="31.12"/><line class="cls-4" x1="196.43" y1="131.82" x2="277.35" y2="100.7"/><line class="cls-4" x1="196.43" y1="100.7" x2="277.35" y2="131.82"/><rect class="cls-4" x="196.43" y="142.66" width="23.59" height="23.59"/><line class="cls-4" x1="196.43" y1="166.26" x2="220.03" y2="142.66"/><line class="cls-4" x1="196.43" y1="142.66" x2="220.03" y2="166.26"/><rect class="cls-4" x="253.77" y="173.72" width="23.59" height="46.18"/><line class="cls-4" x1="253.77" y1="219.91" x2="277.36" y2="173.72"/><line class="cls-4" x1="253.77" y1="173.72" x2="277.36" y2="219.91"/><rect class="cls-4" x="181.45" y="77.22" width="111.04" height="184.19" rx="12" ry="12"/><circle class="cls-4" cx="236.79" cy="243.85" r="7.77"/><rect class="cls-4" x="229.03" y="86.43" width="16" height="1.1" rx="0.55" ry="0.55"/><circle class="cls-4" cx="236.72" cy="82.5" r="1.1"/><rect class="cls-4" x="190" y="92.64" width="93.76" height="136.07"/><rect class="cls-5" x="196.43" y="100.7" width="80.91" height="31.12"/><line class="cls-5" x1="196.43" y1="131.82" x2="277.35" y2="100.7"/><line class="cls-5" x1="196.43" y1="100.7" x2="277.35" y2="131.82"/><rect class="cls-5" x="196.43" y="142.66" width="23.59" height="23.59"/><line class="cls-5" x1="196.43" y1="166.26" x2="220.03" y2="142.66"/><line class="cls-5" x1="196.43" y1="142.66" x2="220.03" y2="166.26"/><line class="cls-5" x1="226.68" y1="142.66" x2="278.44" y2="142.66"/><line class="cls-5" x1="226.68" y1="149.25" x2="278.44" y2="149.25"/><line class="cls-5" x1="226.68" y1="155.4" x2="278.44" y2="155.4"/><line class="cls-5" x1="226.68" y1="161.49" x2="267.77" y2="161.49"/><rect class="cls-5" x="253.77" y="173.72" width="23.59" height="46.18"/><line class="cls-5" x1="253.77" y1="219.91" x2="277.36" y2="173.72"/><line class="cls-5" x1="253.77" y1="173.72" x2="277.36" y2="219.91"/><line class="cls-5" x1="195.49" y1="174.67" x2="247.26" y2="174.67"/><line class="cls-5" x1="195.49" y1="181.25" x2="247.26" y2="181.25"/><line class="cls-5" x1="195.49" y1="187.4" x2="247.26" y2="187.4"/><line class="cls-5" x1="195.49" y1="193.84" x2="247.26" y2="193.84"/><line class="cls-5" x1="195.49" y1="200.43" x2="247.26" y2="200.43"/><line class="cls-5" x1="195.49" y1="206.58" x2="247.26" y2="206.58"/><line class="cls-5" x1="195.49" y1="213.26" x2="236.59" y2="213.26"/></g><rect class="cls-6" x="177.45" y="74.22" width="111.04" height="184.19" rx="12" ry="12"/><circle class="cls-6" cx="232.79" cy="240.85" r="7.77"/><rect class="cls-6" x="225.03" y="83.43" width="16" height="1.1" rx="0.55" ry="0.55"/><circle class="cls-6" cx="232.72" cy="79.5" r="1.1"/><rect class="cls-6" x="186" y="89.64" width="93.76" height="136.07"/><rect class="cls-6" x="192.43" y="97.7" width="80.91" height="31.12"/><line class="cls-6" x1="192.43" y1="128.82" x2="273.35" y2="97.7"/><line class="cls-6" x1="192.43" y1="97.7" x2="273.35" y2="128.82"/><rect class="cls-6" x="192.43" y="139.66" width="23.59" height="23.59"/><line class="cls-6" x1="192.43" y1="163.26" x2="216.03" y2="139.66"/><line class="cls-6" x1="192.43" y1="139.66" x2="216.03" y2="163.26"/><rect class="cls-6" x="249.77" y="170.72" width="23.59" height="46.18"/><line class="cls-6" x1="249.77" y1="216.91" x2="273.36" y2="170.72"/><line class="cls-6" x1="249.77" y1="170.72" x2="273.36" y2="216.91"/><rect class="cls-7" x="177.45" y="74.22" width="111.04" height="184.19" rx="12" ry="12"/><circle class="cls-6" cx="232.79" cy="240.85" r="7.77"/><rect class="cls-6" x="225.03" y="83.43" width="16" height="1.1" rx="0.55" ry="0.55"/><circle class="cls-6" cx="232.72" cy="79.5" r="1.1"/><rect class="cls-6" x="186" y="89.64" width="93.76" height="136.07"/><rect class="cls-8" x="192.43" y="97.7" width="80.91" height="31.12"/><line class="cls-8" x1="192.43" y1="128.82" x2="273.35" y2="97.7"/><line class="cls-8" x1="192.43" y1="97.7" x2="273.35" y2="128.82"/><rect class="cls-8" x="192.43" y="139.66" width="23.59" height="23.59"/><line class="cls-8" x1="192.43" y1="163.26" x2="216.03" y2="139.66"/><line class="cls-8" x1="192.43" y1="139.66" x2="216.03" y2="163.26"/><line class="cls-8" x1="222.68" y1="139.66" x2="274.44" y2="139.66"/><line class="cls-8" x1="222.68" y1="146.25" x2="274.44" y2="146.25"/><line class="cls-8" x1="222.68" y1="152.4" x2="274.44" y2="152.4"/><line class="cls-8" x1="222.68" y1="158.49" x2="263.77" y2="158.49"/><rect class="cls-8" x="249.77" y="170.72" width="23.59" height="46.18"/><line class="cls-8" x1="249.77" y1="216.91" x2="273.36" y2="170.72"/><line class="cls-8" x1="249.77" y1="170.72" x2="273.36" y2="216.91"/><line class="cls-8" x1="191.49" y1="171.67" x2="243.26" y2="171.67"/><line class="cls-8" x1="191.49" y1="178.25" x2="243.26" y2="178.25"/><line class="cls-8" x1="191.49" y1="184.4" x2="243.26" y2="184.4"/><line class="cls-8" x1="191.49" y1="190.84" x2="243.26" y2="190.84"/><line class="cls-8" x1="191.49" y1="197.43" x2="243.26" y2="197.43"/><line class="cls-8" x1="191.49" y1="203.58" x2="243.26" y2="203.58"/><line class="cls-8" x1="191.49" y1="210.26" x2="232.59" y2="210.26"/></g></g></svg>